<svg width="124" height="84" viewBox="0 0 124 84" fill="none" xmlns="http://www.w3.org/2000/svg">
<path id="&#208;&#161;&#209;&#130;&#209;&#128;&#208;&#181;&#208;&#187;&#208;&#186;&#208;&#176;" d="M118.85 83.8495C119.357 84.0696 119.946 83.8375 120.166 83.3309L123.753 75.0767C123.974 74.5702 123.741 73.9812 123.235 73.761C122.728 73.5409 122.139 73.7731 121.919 74.2796L118.73 81.6166L111.393 78.428C110.887 78.2079 110.298 78.44 110.078 78.9465C109.858 79.4531 110.09 80.0421 110.596 80.2623L118.85 83.8495ZM0.976759 2.87835C43.9515 2.88252 95.4394 25.2476 118.319 83.299L120.179 82.5657C96.9409 23.603 44.6028 0.882588 0.976953 0.87835L0.976759 2.87835Z" fill="#E73331"/>
</svg>
