<svg width="148" height="41" viewBox="0 0 148 41" fill="none" xmlns="http://www.w3.org/2000/svg">
<g clip-path="url(#clip0_2986_2728)">
<path fill-rule="evenodd" clip-rule="evenodd" d="M0.0898438 26.2409H6.14294C6.14294 17.8147 6.14294 9.04916 6.14294 0.566406H0.0898438C0.0898438 9.04916 0.0898438 17.8147 0.0898438 26.2409ZM24.5285 0.566406V13.7995C24.4154 13.7995 16.2126 0.566406 16.2126 0.566406C16.2126 0.566406 11.8566 0.566406 9.70691 0.566406C9.70691 9.04916 9.70691 17.7581 9.70691 26.1843H15.9863C15.9863 21.7167 15.9863 12.4423 15.9863 12.4423C15.9863 12.4423 21.7565 21.7167 24.5285 26.1843H30.8079C30.8079 17.7581 30.8079 9.04916 30.8079 0.566406H24.5285ZM34.2587 6.84365H41.3867C41.3867 13.1774 41.4432 19.8505 41.4432 26.1843H47.7226C47.7226 19.8505 47.7226 13.1774 47.7226 6.84365H54.8506V0.566406H34.2587V6.84365ZM58.2448 26.1278H75.0464V19.8505H64.5242C64.5242 18.7195 64.5242 17.4188 64.5242 16.2878C67.9185 16.2878 75.0464 16.2878 75.0464 16.2878V10.0105C75.0464 10.0105 67.9185 10.0105 64.5242 10.0105V6.84365H75.103V0.566406H58.2448C58.2448 9.04916 58.2448 17.7016 58.2448 26.1278ZM84.7201 0.566406H78.4407C78.4407 8.99261 78.4973 17.7581 78.4973 26.1843H95.3554V19.9071H84.7766C84.7766 13.5733 84.7201 6.9002 84.7201 0.566406ZM119.059 0.566406V26.1843H125.338V0.566406H119.059Z" fill="black"/>
<path fill-rule="evenodd" clip-rule="evenodd" d="M0.0898438 26.2409H6.14294C6.14294 17.8147 6.14294 9.04916 6.14294 0.566406H0.0898438C0.0898438 9.04916 0.0898438 17.8147 0.0898438 26.2409ZM24.5285 0.566406V13.7995C24.4154 13.7995 16.2126 0.566406 16.2126 0.566406C16.2126 0.566406 11.8566 0.566406 9.70691 0.566406C9.70691 9.04916 9.70691 17.7581 9.70691 26.1843H15.9863C15.9863 21.7167 15.9863 12.4423 15.9863 12.4423C15.9863 12.4423 21.7565 21.7167 24.5285 26.1843H30.8079C30.8079 17.7581 30.8079 9.04916 30.8079 0.566406H24.5285ZM34.2587 6.84365H41.3867C41.3867 13.1774 41.4432 19.8505 41.4432 26.1843H47.7226C47.7226 19.8505 47.7226 13.1774 47.7226 6.84365H54.8506V0.566406H34.2587V6.84365ZM58.2448 26.1278H75.0464V19.8505H64.5242C64.5242 18.7195 64.5242 17.4188 64.5242 16.2878C67.9185 16.2878 75.0464 16.2878 75.0464 16.2878V10.0105C75.0464 10.0105 67.9185 10.0105 64.5242 10.0105V6.84365H75.103V0.566406H58.2448C58.2448 9.04916 58.2448 17.7016 58.2448 26.1278ZM84.7201 0.566406H78.4407C78.4407 8.99261 78.4973 17.7581 78.4973 26.1843H95.3554V19.9071H84.7766C84.7766 13.5733 84.7201 6.9002 84.7201 0.566406ZM119.059 0.566406V26.1843H125.338V0.566406H119.059Z" fill="black"/>
<path fill-rule="evenodd" clip-rule="evenodd" d="M147.684 15.836C147.344 14.6484 146.722 13.5174 146.043 12.8388C146.552 12.0471 147.118 10.9726 147.344 9.84154C147.74 7.97533 147.967 4.24292 144.12 1.81119C139.82 -0.846738 128.789 0.567055 128.789 0.567055C128.789 3.90361 128.789 15.214 128.789 15.214C128.789 18.7767 128.789 22.3395 128.789 25.9022C128.959 25.9022 129.072 25.9022 129.185 25.9022C131.222 26.1284 140.669 27.9381 144.572 24.9408C148.08 22.2264 148.363 17.9284 147.684 15.836ZM135.068 6.9574C135.351 6.9574 135.804 6.9574 136.709 6.9574C138.067 6.9574 139.99 6.8443 140.669 7.52292C141.687 8.54085 141.122 10.0112 140.047 10.3505C139.424 10.5202 137.388 10.5767 135.068 10.5202C135.068 9.33257 135.068 8.14499 135.068 6.9574ZM135.068 16.1753C137.388 16.1188 139.651 16.1753 140.216 16.345C141.348 16.6843 141.914 18.1546 140.895 19.1726C140.216 19.8512 138.236 19.7381 136.935 19.7381C136.03 19.7381 135.351 19.7381 135.068 19.7381C135.068 18.5505 135.068 17.3629 135.068 16.1753Z" fill="black"/>
<path fill-rule="evenodd" clip-rule="evenodd" d="M147.684 15.836C147.344 14.6484 146.722 13.5174 146.043 12.8388C146.552 12.0471 147.118 10.9726 147.344 9.84154C147.74 7.97533 147.967 4.24292 144.12 1.81119C139.82 -0.846738 128.789 0.567055 128.789 0.567055C128.789 3.90361 128.789 15.214 128.789 15.214C128.789 18.7767 128.789 22.3395 128.789 25.9022C128.959 25.9022 129.072 25.9022 129.185 25.9022C131.222 26.1284 140.669 27.9381 144.572 24.9408C148.08 22.2264 148.363 17.9284 147.684 15.836ZM135.068 6.9574C135.351 6.9574 135.804 6.9574 136.709 6.9574C138.067 6.9574 139.99 6.8443 140.669 7.52292C141.687 8.54085 141.122 10.0112 140.047 10.3505C139.424 10.5202 137.388 10.5767 135.068 10.5202C135.068 9.33257 135.068 8.14499 135.068 6.9574ZM135.068 16.1753C137.388 16.1188 139.651 16.1753 140.216 16.345C141.348 16.6843 141.914 18.1546 140.895 19.1726C140.216 19.8512 138.236 19.7381 136.935 19.7381C136.03 19.7381 135.351 19.7381 135.068 19.7381C135.068 18.5505 135.068 17.3629 135.068 16.1753Z" fill="black"/>
<path fill-rule="evenodd" clip-rule="evenodd" d="M116.174 6.95645C116.174 6.95645 116.061 4.52473 114.024 2.54542C112.384 0.961967 109.103 -0.791136 104.464 0.39645C99.8815 1.52748 97.6187 5.03369 98.1844 9.38817C98.6935 13.5164 103.672 15.2696 105.539 15.9482C107.462 16.6833 110.573 17.0792 110.347 18.7758C110.177 20.3592 108.311 21.0378 106.274 20.4723C104.237 19.8502 103.672 18.1537 103.672 18.1537L97.7318 19.7937C97.7318 19.7937 97.5621 21.4337 99.6552 23.8089C101.862 26.2971 105.821 27.202 108.989 26.693C112.157 26.184 116.174 24.4875 116.853 19.7371C117.588 14.9302 115.212 13.4033 113.855 12.442C112.949 11.8199 109.668 10.6323 107.575 9.95369C106.557 9.61438 105.143 8.93576 104.803 8.31369C104.52 7.80473 104.464 6.95645 105.086 6.27783C106.557 4.80748 109.103 5.4861 109.838 6.95645C110.177 7.63507 110.177 8.25714 110.177 8.25714L116.174 6.95645Z" fill="black"/>
<path fill-rule="evenodd" clip-rule="evenodd" d="M116.174 6.95645C116.174 6.95645 116.061 4.52473 114.024 2.54542C112.384 0.961967 109.103 -0.791136 104.464 0.39645C99.8815 1.52748 97.6187 5.03369 98.1844 9.38817C98.6935 13.5164 103.672 15.2696 105.539 15.9482C107.462 16.6833 110.573 17.0792 110.347 18.7758C110.177 20.3592 108.311 21.0378 106.274 20.4723C104.237 19.8502 103.672 18.1537 103.672 18.1537L97.7318 19.7937C97.7318 19.7937 97.5621 21.4337 99.6552 23.8089C101.862 26.2971 105.821 27.202 108.989 26.693C112.157 26.184 116.174 24.4875 116.853 19.7371C117.588 14.9302 115.212 13.4033 113.855 12.442C112.949 11.8199 109.668 10.6323 107.575 9.95369C106.557 9.61438 105.143 8.93576 104.803 8.31369C104.52 7.80473 104.464 6.95645 105.086 6.27783C106.557 4.80748 109.103 5.4861 109.838 6.95645C110.177 7.63507 110.177 8.25714 110.177 8.25714L116.174 6.95645Z" fill="black"/>
<path fill-rule="evenodd" clip-rule="evenodd" d="M54.9071 40.9999H0.0332031V34.7227H54.9071V40.9999Z" fill="#F57E79"/>
<path fill-rule="evenodd" clip-rule="evenodd" d="M54.9071 40.9999H0.0332031V34.7227H54.9071V40.9999Z" fill="#E73331"/>
</g>
<defs>
<clipPath id="clip0_2986_2728">
<rect width="148" height="41" fill="white"/>
</clipPath>
</defs>
</svg>
