<svg width="15" height="13" viewBox="0 0 15 13" fill="none" xmlns="http://www.w3.org/2000/svg">
<g id="&#208;&#154;&#208;&#176;&#208;&#178;&#209;&#139;&#209;&#135;&#208;&#186;&#208;&#184; &#208;&#184;&#208;&#186;&#208;&#190;&#208;&#189;&#208;&#186;&#208;&#176;">
<path id="Vector" d="M13.5302 2.42228L13.5302 2.42232L9.74605 6.31826L13.5297 10.2137C13.5298 10.2138 13.5299 10.2139 13.53 10.214C13.6234 10.31 13.6965 10.423 13.7461 10.5461C13.7958 10.6693 13.8211 10.8008 13.8211 10.9331C13.8211 11.0654 13.7958 11.1969 13.7461 11.3201C13.6966 11.4431 13.6235 11.556 13.5302 11.652C13.437 11.7481 13.3253 11.8253 13.201 11.8785C13.0763 11.9317 12.942 11.9594 12.8059 11.9594C12.6698 11.9594 12.5356 11.9317 12.4109 11.8785C12.2866 11.8253 12.1749 11.7481 12.0817 11.652C12.0815 11.6518 12.0813 11.6516 12.0811 11.6514L7.60062 7.0377C7.60053 7.03761 7.60044 7.03752 7.60034 7.03742C7.50692 6.94139 7.43376 6.82836 7.38415 6.70525C7.3345 6.58204 7.30917 6.45059 7.30917 6.31826C7.30917 6.18593 7.3345 6.05448 7.38415 5.93127C7.43376 5.80816 7.50692 5.69513 7.60034 5.5991C7.60043 5.599 7.60053 5.59891 7.60062 5.59881L12.0817 0.984552C12.2705 0.79014 12.5306 0.677334 12.8059 0.677334C13.0813 0.677334 13.3414 0.79014 13.5302 0.984552C13.7184 1.17833 13.8209 1.43724 13.8209 1.70341C13.8209 1.96959 13.7184 2.2285 13.5302 2.42228Z" fill="#E73331" stroke="#E73331" stroke-width="1.28205"/>
<path id="Vector_2" d="M7.40132 2.42228L7.40128 2.42232L3.61714 6.31826L7.40075 10.2137C7.40086 10.2138 7.40096 10.2139 7.40106 10.214C7.49447 10.31 7.56762 10.423 7.61722 10.5461C7.66687 10.6693 7.6922 10.8008 7.6922 10.9331C7.6922 11.0654 7.66687 11.1969 7.61722 11.3201C7.56766 11.4431 7.4946 11.556 7.40132 11.652C7.30809 11.7481 7.19638 11.8253 7.07205 11.8785C6.94743 11.9317 6.81314 11.9594 6.67704 11.9594C6.54094 11.9594 6.40665 11.9317 6.28203 11.8785C6.1577 11.8253 6.04599 11.7481 5.95276 11.652C5.95257 11.6518 5.95238 11.6516 5.9522 11.6514L1.47171 7.0377C1.47162 7.03761 1.47153 7.03752 1.47144 7.03742C1.37802 6.94139 1.30485 6.82836 1.25524 6.70525C1.20559 6.58204 1.18026 6.45059 1.18026 6.31826C1.18026 6.18593 1.20559 6.05448 1.25524 5.93127C1.30485 5.80816 1.37802 5.69513 1.47144 5.5991C1.47153 5.599 1.47162 5.59891 1.47171 5.59881L5.95276 0.984552C6.14156 0.79014 6.40169 0.677334 6.67704 0.677334C6.95238 0.677334 7.21252 0.79014 7.40132 0.984552C7.5895 1.17833 7.692 1.43724 7.692 1.70341C7.692 1.96959 7.5895 2.2285 7.40132 2.42228Z" fill="#E73331" stroke="#E73331" stroke-width="1.28205"/>
</g>
</svg>
